<?xml version="1.0" standalone="no"?>
<!DOCTYPE svg PUBLIC "-//W3C//DTD SVG 20010904//EN"
 "http://www.w3.org/TR/2001/REC-SVG-20010904/DTD/svg10.dtd">
<svg version="1.0" xmlns="http://www.w3.org/2000/svg"
 width="600.000000pt" height="600.000000pt" viewBox="0 0 600.000000 600.000000"
 preserveAspectRatio="xMidYMid meet">
<metadata>
Created by potrace 1.11, written by Peter Selinger 2001-2013
</metadata>
<g transform="translate(0.000000,600.000000) scale(0.100000,-0.100000)"
fill="#000000" stroke="none">
<path d="M2570 5834 c-155 -24 -429 -81 -524 -109 -160 -46 -799 -306 -1071
-435 -145 -69 -158 -89 -165 -261 l-6 -128 -52 -104 c-78 -156 -70 -193 60
-289 90 -67 133 -116 167 -188 25 -54 26 -60 29 -305 3 -194 0 -280 -13 -383
-26 -196 -17 -411 29 -717 48 -318 67 -416 127 -629 93 -335 183 -500 371
-682 121 -117 254 -209 608 -419 311 -185 632 -419 799 -580 57 -55 143 -152
192 -217 95 -124 129 -156 183 -165 49 -8 109 23 243 126 141 107 642 528 732
615 191 183 486 549 539 666 46 105 64 196 65 325 1 143 -11 215 -68 440 -56
219 -65 283 -65 460 0 224 19 263 235 485 285 293 391 466 370 608 -12 82 -73
256 -129 366 -100 195 -317 507 -483 691 -115 128 -222 218 -452 382 -338 241
-604 354 -1021 434 -151 29 -551 36 -700 13z m275 -254 c3 -6 -1 -7 -9 -4 -18
7 -21 14 -7 14 6 0 13 -4 16 -10z m-5 -28 c17 -13 20 -24 15 -45 -7 -26 -17
-31 -60 -29 -44 3 -52 7 -63 30 -6 14 -9 22 -6 19 3 -3 17 6 31 19 31 29 53
30 83 6z m-185 -37 c-33 -27 -30 -34 17 -46 28 -7 27 -8 -12 -3 -24 3 -47 7
-49 10 -9 8 15 38 40 51 36 19 37 15 4 -12z m143 -62 c-10 -2 -28 -2 -40 0
-13 2 -5 4 17 4 22 1 32 -1 23 -4z m431 -7 c-2 -2 -13 -6 -24 -8 -11 -1 -25
-12 -32 -23 -7 -11 -12 -15 -13 -9 0 17 24 42 45 46 20 4 32 1 24 -6z m36 -6
c3 -6 -1 -7 -9 -4 -18 7 -21 14 -7 14 6 0 13 -4 16 -10z m-15 -37 c8 -2 27 -5
42 -7 37 -6 142 -42 203 -70 82 -39 113 -48 126 -40 8 5 9 3 4 -6 -6 -10 -4
-12 8 -7 11 4 17 1 17 -7 0 -16 48 -39 62 -30 7 4 8 2 4 -5 -5 -7 5 -17 26
-26 18 -8 46 -23 62 -34 17 -11 34 -18 38 -15 5 3 7 0 6 -8 -2 -7 5 -12 14
-12 10 1 15 -3 11 -9 -4 -6 0 -8 10 -4 9 3 19 1 23 -5 4 -7 3 -8 -4 -4 -7 4
-12 2 -12 -3 0 -6 7 -11 15 -11 8 0 15 -5 15 -11 0 -6 7 -9 15 -6 8 4 17 1 21
-5 5 -7 2 -8 -7 -3 -8 4 -4 -2 8 -14 24 -23 38 -28 27 -8 -5 8 -3 8 9 -2 9 -7
15 -17 12 -21 -6 -10 42 -50 58 -47 6 1 11 -3 10 -10 -1 -6 22 -28 51 -48 29
-20 59 -48 67 -61 7 -14 19 -22 26 -19 8 2 11 1 8 -5 -7 -11 29 -32 40 -22 5
4 5 1 1 -5 -4 -7 -2 -13 4 -13 7 0 21 -11 32 -25 11 -14 24 -23 29 -19 5 3 8
0 7 -8 -2 -7 3 -12 10 -10 8 1 11 -2 7 -8 -3 -6 3 -14 15 -18 12 -4 21 -11 21
-15 -1 -4 8 -16 19 -27 11 -11 20 -17 20 -13 0 4 11 -9 25 -29 14 -20 37 -43
52 -50 16 -7 28 -19 28 -27 0 -7 12 -23 27 -34 15 -12 28 -29 30 -37 2 -8 10
-21 18 -28 8 -8 11 -11 5 -9 -5 3 -10 -8 -10 -23 0 -16 2 -28 5 -28 33 2 39
-12 14 -36 -20 -20 -83 -21 -129 -1 -20 8 -59 37 -89 65 l-54 51 -30 -31 c-41
-41 -72 -39 -117 7 -37 38 -41 55 -25 97 9 24 6 29 -29 54 -38 27 -149 85
-221 115 -84 35 -119 41 -253 41 -134 1 -139 0 -158 -23 -25 -30 -19 -36 32
-40 50 -2 79 -16 79 -36 0 -17 -36 -20 -45 -4 -11 18 -77 7 -136 -23 -82 -41
-97 -66 -56 -96 9 -7 17 -22 17 -34 0 -22 -3 -22 83 0 42 11 67 28 67 47 0 16
96 13 112 -3 7 -7 20 -12 29 -12 9 0 22 -7 29 -15 7 -8 19 -15 26 -15 14 0
106 -41 114 -51 3 -4 23 -16 45 -27 41 -22 102 -76 130 -115 15 -21 23 -22
173 -25 145 -2 161 -5 203 -27 54 -29 112 -32 185 -10 76 23 90 20 120 -25 15
-22 29 -40 31 -40 2 0 1 5 -2 10 -3 6 -4 10 -1 10 3 0 13 -16 22 -35 9 -19 21
-35 26 -35 5 0 7 -4 4 -9 -3 -5 1 -11 9 -15 8 -3 15 -17 15 -31 0 -14 5 -25
11 -25 14 0 39 -63 39 -98 0 -33 -17 -53 -100 -117 -66 -51 -208 -127 -222
-119 -4 3 -8 1 -8 -4 0 -11 -80 -45 -87 -38 -3 3 -12 -2 -21 -11 -14 -14 -17
-14 -29 3 -7 10 -13 25 -13 34 0 9 -6 30 -14 46 -7 16 -20 44 -27 62 -8 17
-17 32 -21 32 -5 0 -8 7 -8 15 0 37 -132 150 -227 195 -29 14 -53 28 -53 31 0
4 -8 9 -17 13 -35 12 -111 62 -142 93 -18 18 -35 32 -39 31 -4 -1 -25 4 -47
10 -22 6 -67 14 -100 17 -33 4 -66 10 -73 14 -30 17 -58 0 -69 -39 -7 -27 -7
-38 0 -37 6 1 13 -6 15 -15 7 -32 -16 -19 -48 27 -17 25 -36 45 -42 45 -7 0
-9 19 -5 56 4 39 2 57 -7 60 -20 8 -64 -13 -91 -42 -20 -22 -27 -24 -39 -14
-9 6 -18 21 -21 31 -5 15 -14 19 -33 17 -21 -2 -28 -9 -30 -30 -7 -61 90 -168
140 -154 19 4 56 -19 46 -29 -12 -12 -57 -10 -88 4 -57 26 -120 75 -117 91 3
20 -32 55 -69 67 -52 18 -171 -44 -175 -93 -1 -7 -2 -20 -3 -26 -1 -7 2 -24 7
-38 5 -14 11 -45 14 -70 8 -72 8 -74 14 -85 3 -5 6 -25 8 -42 1 -18 14 -54 28
-80 14 -27 35 -66 46 -88 12 -22 25 -43 30 -46 5 -3 9 -10 9 -15 0 -5 3 -15 6
-22 2 -7 -4 -19 -14 -27 -23 -17 -34 -19 -34 -4 0 5 4 8 9 5 13 -8 21 18 10
35 -8 12 -13 7 -11 -12 1 -3 -5 -6 -13 -6 -8 0 -13 3 -13 6 1 3 -3 17 -9 31
-33 77 -43 108 -45 138 -1 17 -5 32 -9 32 -3 0 -9 18 -13 40 -6 38 -43 90 -64
90 -10 0 -34 65 -36 95 -1 15 -35 18 -52 4 -13 -10 -15 -41 -13 -178 1 -91 6
-177 11 -191 5 -14 12 -54 14 -90 3 -36 9 -76 14 -90 5 -14 11 -41 13 -61 2
-19 9 -45 16 -56 6 -12 11 -35 11 -52 0 -16 5 -33 10 -36 6 -3 10 -17 10 -31
0 -13 8 -43 18 -67 11 -23 29 -69 42 -102 12 -33 28 -74 36 -92 8 -17 14 -36
14 -42 0 -6 11 -32 24 -59 13 -26 39 -83 57 -127 42 -100 60 -134 141 -265 76
-122 100 -150 128 -150 17 0 20 6 20 45 0 50 15 59 31 18 6 -16 16 -35 24 -43
16 -18 86 -150 80 -150 -3 0 11 -33 32 -72 51 -103 66 -148 78 -243 4 -27 9
-61 12 -75 7 -33 24 -223 26 -282 0 -27 5 -48 10 -48 4 0 6 -4 3 -9 -5 -7 19
-8 68 -2 5 1 7 4 4 7 -4 3 7 34 23 69 37 83 59 145 59 171 0 12 7 35 15 50 9
17 14 53 14 87 -1 32 1 61 5 64 10 10 7 -122 -5 -199 -7 -40 -18 -89 -26 -108
-26 -62 -68 -145 -76 -151 -5 -3 -8 -9 -7 -13 0 -4 -15 -41 -35 -82 -20 -42
-34 -82 -31 -91 4 -10 2 -13 -8 -10 -16 6 -81 -22 -72 -30 3 -3 17 2 32 12 15
9 23 12 20 6 -10 -15 -67 -44 -74 -37 -3 3 0 6 7 6 7 0 9 5 6 10 -5 8 -11 7
-21 -1 -7 -6 -12 -14 -10 -18 6 -10 -12 -37 -19 -29 -4 3 -8 12 -9 20 -2 7
-10 30 -20 50 -9 21 -16 46 -16 57 0 11 -4 23 -10 26 -5 3 -10 24 -10 46 0 22
-5 49 -11 61 -6 11 -13 31 -15 45 -8 46 -163 363 -176 363 -5 0 -8 7 -8 15 0
8 -4 15 -10 15 -5 0 -10 5 -10 11 0 17 -81 149 -97 158 -9 4 -17 28 -20 54 -3
26 -9 47 -14 47 -5 0 -6 7 -3 15 4 8 1 15 -5 15 -6 0 -11 7 -11 15 0 13 -36
81 -97 183 -13 20 -27 47 -32 59 -5 11 -15 24 -20 28 -6 3 -11 15 -11 25 0 10
-7 25 -15 34 -8 8 -15 18 -15 23 0 4 -18 32 -40 61 -22 29 -40 55 -40 58 0 4
-68 98 -148 204 -10 14 -45 63 -77 110 -32 47 -75 108 -95 135 -20 28 -49 73
-65 100 -16 28 -32 52 -36 55 -4 3 -19 28 -34 55 -16 28 -31 52 -34 55 -11 9
-84 150 -102 198 -18 45 -32 78 -42 97 -24 46 -100 303 -110 370 -1 11 -5 25
-8 30 -4 6 -9 22 -13 36 -6 27 -30 44 -48 33 -15 -9 -28 -50 -33 -107 -3 -29
-8 -72 -12 -97 -4 -25 -6 -48 -5 -52 1 -4 -7 -10 -18 -13 -24 -8 -33 -36 -21
-68 5 -14 13 -45 16 -68 4 -24 8 -48 9 -54 11 -46 19 -72 23 -85 4 -8 7 -18 8
-22 2 -5 4 -11 5 -15 1 -5 2 -12 1 -17 -1 -4 5 -19 14 -32 8 -13 13 -24 10
-24 -4 0 1 -12 9 -27 23 -43 71 -177 68 -190 -2 -7 1 -13 7 -13 5 0 12 -13 16
-30 4 -16 11 -30 16 -30 5 0 9 -8 9 -19 0 -10 8 -29 18 -42 10 -13 29 -50 42
-82 13 -31 31 -65 41 -75 9 -10 19 -28 23 -39 3 -10 14 -28 24 -39 9 -11 33
-50 52 -87 19 -36 47 -81 62 -98 15 -17 26 -35 23 -39 -3 -4 2 -13 10 -20 9
-7 25 -35 37 -62 11 -26 24 -48 29 -48 4 0 18 -18 30 -40 13 -22 27 -40 33
-40 5 0 6 -3 3 -7 -4 -3 2 -12 13 -20 11 -8 20 -20 20 -27 0 -7 15 -26 33 -43
48 -45 76 -82 83 -109 3 -13 13 -24 21 -24 8 0 12 -4 8 -9 -3 -6 1 -13 8 -18
7 -4 24 -24 38 -43 13 -19 34 -45 47 -57 12 -12 22 -27 22 -33 0 -5 4 -10 10
-10 5 0 12 -11 16 -24 3 -13 19 -33 35 -45 15 -12 40 -45 53 -74 14 -29 33
-61 43 -72 20 -22 68 -116 65 -128 -1 -4 2 -7 6 -7 4 0 9 -12 10 -27 1 -15 10
-38 19 -52 10 -14 16 -29 15 -34 -1 -4 3 -7 9 -7 5 0 7 -4 4 -10 -3 -5 -2 -10
2 -10 5 0 9 -10 10 -22 1 -11 6 -24 10 -27 4 -3 10 -15 12 -26 1 -11 8 -29 14
-40 6 -11 12 -31 14 -45 2 -14 8 -46 14 -73 6 -26 13 -77 15 -115 11 -203 12
-282 5 -282 -5 0 -16 17 -26 38 -10 20 -53 108 -96 196 -43 87 -97 207 -119
266 -86 234 -252 560 -347 680 -7 8 -30 40 -52 70 -21 30 -53 73 -71 95 -31
40 -44 59 -202 290 -217 317 -428 672 -501 845 -9 19 -25 57 -36 84 -20 45
-38 108 -77 256 -18 69 -34 169 -38 240 -3 47 -11 95 -16 95 -1 0 -3 52 -5
115 -4 120 -6 145 -18 156 -4 4 -7 12 -7 18 0 6 5 4 10 -4 7 -10 10 -11 10 -2
0 7 -7 15 -15 18 -8 4 -12 11 -8 17 3 6 6 27 6 46 0 20 4 42 9 48 14 17 12 81
-1 97 -11 14 -61 26 -111 28 -14 0 -19 3 -11 5 9 4 10 7 2 12 -7 5 -1 17 19
34 16 15 30 24 30 21 0 -4 9 1 21 12 12 10 22 17 23 15 0 -2 33 6 72 18 39 11
86 21 105 21 19 1 45 7 59 15 14 8 52 14 88 15 42 0 74 6 99 20 21 11 44 20
51 20 7 0 12 8 10 18 -4 19 -21 22 -116 22 -34 0 -95 7 -135 15 -39 8 -82 15
-94 15 -20 0 -51 11 -122 44 -19 9 -20 12 -8 14 10 2 17 7 17 12 0 5 6 7 14 4
8 -3 25 0 38 7 13 7 29 12 36 11 6 -2 12 1 12 7 0 5 -6 12 -12 14 -8 3 -7 6 4
6 9 1 20 -3 23 -9 3 -5 13 -10 21 -10 8 0 13 4 10 8 -2 4 16 7 42 6 26 -1 190
-3 365 -5 259 -3 319 -1 326 10 9 14 3 51 -8 51 -31 2 -89 14 -103 21 -9 5
-26 9 -37 9 -11 0 -45 11 -75 24 -30 13 -56 22 -59 20 -2 -3 -10 2 -16 10 -10
12 -9 17 7 25 11 6 22 7 26 3 4 -3 4 1 1 9 -6 16 21 27 103 44 26 5 31 10 22
19 -10 8 -14 8 -17 -3 -5 -11 -7 -11 -14 0 -7 11 -12 12 -28 2 -13 -8 -22 -9
-26 -3 -3 6 1 10 10 10 9 0 14 3 12 8 -3 4 9 8 26 8 18 1 58 4 90 8 44 5 63 3
80 -9 12 -8 16 -15 9 -15 -6 0 -12 -5 -12 -12 0 -6 3 -9 6 -6 3 3 37 -3 76
-14 39 -11 85 -18 104 -16 18 2 30 0 27 -5 -3 -5 11 -7 30 -6 19 2 42 -3 51
-10 9 -7 16 -10 16 -6 0 4 6 3 13 -3 7 -6 23 -9 35 -5 13 3 46 -2 75 -10 29
-9 63 -19 77 -21 14 -3 40 -10 59 -15 19 -6 37 -9 39 -6 3 2 16 -2 31 -9 14
-7 41 -13 60 -12 29 1 35 5 38 26 2 19 -4 30 -24 43 -53 32 -82 62 -89 91 -5
20 -3 27 4 22 6 -3 13 -2 17 4 4 6 12 7 18 3 7 -4 19 -9 27 -10z m90 7 c0 -5
-4 -10 -10 -10 -5 0 -10 5 -10 10 0 6 5 10 10 10 6 0 10 -4 10 -10z m57 -16
c-3 -3 -12 -4 -19 -1 -8 3 -5 6 6 6 11 1 17 -2 13 -5z m-1480 -10 c-3 -3 -12
-4 -19 -1 -8 3 -5 6 6 6 11 1 17 -2 13 -5z m-67 -18 c0 -2 -9 -6 -20 -9 -11
-3 -18 -1 -14 4 5 9 34 13 34 5z m462 -3 c-7 -2 -26 -18 -42 -35 -19 -19 -34
-26 -42 -21 -9 6 -7 9 9 11 12 2 29 14 37 28 9 13 24 24 34 23 10 0 12 -3 4
-6z m-387 -21 c3 -7 3 -18 -1 -23 -10 -17 -59 -37 -107 -44 -38 -6 -47 -4 -47
7 0 22 34 48 81 62 54 16 67 16 74 -2z m1630 -30 c-3 -3 -11 0 -18 7 -9 10 -8
11 6 5 10 -3 15 -9 12 -12z m-1820 -2 c-3 -5 -12 -10 -18 -10 -7 0 -6 4 3 10
19 12 23 12 15 0z m-29 -29 c-10 -16 26 -35 63 -34 35 2 35 2 -7 -7 -24 -5
-53 -5 -65 -1 -12 5 -25 9 -29 10 -12 2 -10 10 4 26 14 15 43 21 34 6z m209
-1 c-3 -5 -11 -10 -16 -10 -6 0 -7 5 -4 10 3 6 11 10 16 10 6 0 7 -4 4 -10z
m-58 -26 c-3 -3 -12 -4 -19 -1 -8 3 -5 6 6 6 11 1 17 -2 13 -5z m-131 -89 c12
-26 9 -35 -13 -35 -7 0 -13 8 -13 18 0 10 -5 23 -12 30 -9 9 -8 12 8 12 10 0
24 -11 30 -25z m-36 -5 c0 -5 -4 -10 -10 -10 -5 0 -10 5 -10 10 0 6 5 10 10
10 6 0 10 -4 10 -10z m-479 -59 c-9 -6 -12 -21 -9 -44 5 -42 -2 -40 -17 6 -7
19 -17 31 -25 29 -10 -1 -9 2 3 12 11 8 26 12 35 9 11 -5 13 -3 7 8 -7 12 -5
12 6 1 12 -11 12 -14 0 -21z m84 7 c17 -8 25 -19 25 -36 0 -14 8 -35 18 -46
17 -21 17 -21 -5 -2 -13 11 -23 30 -23 42 0 15 -10 29 -27 38 -33 18 -25 21
12 4z m-22 -49 c-5 -16 -8 -18 -14 -7 -7 11 -9 10 -9 -1 0 -8 -3 -12 -6 -8 -3
3 -3 15 1 26 8 26 35 17 28 -10z m-35 -74 c-3 -3 -9 2 -12 12 -6 14 -5 15 5 6
7 -7 10 -15 7 -18z m137 -3 c-3 -3 -11 0 -18 7 -9 10 -8 11 6 5 10 -3 15 -9
12 -12z m1 -29 c11 -7 23 -10 27 -7 3 3 3 -3 0 -15 -3 -12 -9 -21 -13 -21 -13
0 -95 -59 -96 -70 -1 -5 -2 -13 -3 -18 0 -4 -19 -26 -40 -50 -26 -28 -37 -49
-34 -61 5 -20 -19 -39 -47 -36 -8 1 -21 3 -27 3 -22 3 -14 21 16 36 22 12 31
12 41 3 10 -9 11 -9 6 0 -3 6 -2 14 4 18 5 3 10 13 10 21 0 8 -4 13 -9 10 -17
-11 -5 23 16 46 13 14 22 39 24 63 2 22 7 46 12 52 5 7 7 19 4 27 -7 18 80 18
109 -1z m31 11 c-3 -3 -12 -4 -19 -1 -8 3 -5 6 6 6 11 1 17 -2 13 -5z m-157
-58 c0 -3 -4 -8 -10 -11 -5 -3 -10 -1 -10 4 0 6 5 11 10 11 6 0 10 -2 10 -4z
m93 -61 c-3 -9 -8 -14 -10 -11 -3 3 -2 9 2 15 9 16 15 13 8 -4z m-196 -93
c-20 -21 -37 -46 -37 -55 0 -9 -5 -17 -11 -17 -5 0 -7 -4 -4 -10 3 -5 1 -10
-4 -10 -11 0 -15 13 -12 40 2 12 0 13 -7 1 -6 -7 -15 -10 -21 -6 -7 4 -20 1
-29 -6 -13 -11 -13 -9 2 8 10 13 22 20 27 17 13 -8 72 22 98 50 14 14 27 26
30 26 3 0 -12 -17 -32 -38z m136 4 c-18 -24 -33 -25 -33 -4 0 6 3 9 6 5 4 -3
13 0 21 8 22 23 26 18 6 -9z m-20 -92 c4 -26 2 -31 -12 -29 -9 2 -29 4 -46 5
-22 2 -25 4 -10 7 11 3 26 10 33 15 8 7 12 7 12 -1 0 -6 4 -11 9 -11 4 0 6 12
3 28 -2 15 -2 25 1 22 3 -3 7 -19 10 -36z m-126 -10 c-3 -3 -12 -4 -19 -1 -8
3 -5 6 6 6 11 1 17 -2 13 -5z m183 -59 c0 -5 -11 -10 -25 -10 -14 0 -25 5 -25
10 0 6 11 10 25 10 14 0 25 -4 25 -10z m75 -20 c22 -4 46 -7 52 -8 18 -1 29
-67 13 -77 -7 -4 -10 -23 -9 -43 2 -20 0 -39 -4 -43 -10 -10 -9 -76 1 -70 5 3
9 -1 9 -9 0 -8 -4 -12 -9 -9 -4 3 -8 0 -8 -6 0 -7 -9 -23 -19 -36 -19 -24 -20
-24 -30 -6 -5 10 -11 41 -12 68 -2 37 -9 54 -28 73 -24 22 -24 23 -3 12 12 -6
22 -10 22 -9 0 15 -42 114 -50 116 -16 6 -12 32 6 39 10 4 14 13 10 27 -4 19
-4 19 7 4 7 -9 31 -19 52 -23z m18 18 c-7 -2 -19 -2 -25 0 -7 3 -2 5 12 5 14
0 19 -2 13 -5z m87 -49 c0 -14 -3 -14 -15 -4 -8 7 -15 14 -15 16 0 2 7 4 15 4
8 0 15 -7 15 -16z m-166 -90 c3 -8 2 -12 -4 -9 -6 3 -10 10 -10 16 0 14 7 11
14 -7z m26 -79 c0 -8 -2 -15 -4 -15 -2 0 -6 7 -10 15 -3 8 -1 15 4 15 6 0 10
-7 10 -15z m2790 5 c8 -5 11 -12 8 -16 -10 -9 -38 3 -38 16 0 12 10 13 30 0z
m-2776 -96 c3 -8 2 -12 -4 -9 -6 3 -10 10 -10 16 0 14 7 11 14 -7z m3 -76 c-3
-8 -6 -5 -6 6 -1 11 2 17 5 13 3 -3 4 -12 1 -19z m54 -11 c-10 -9 -11 -8 -5 6
3 10 9 15 12 12 3 -3 0 -11 -7 -18z m-54 -29 c-3 -8 -6 -5 -6 6 -1 11 2 17 5
13 3 -3 4 -12 1 -19z m39 -33 c-20 -30 -36 -32 -36 -5 0 13 5 18 16 13 10 -4
17 2 21 18 4 13 8 18 11 11 2 -7 -3 -24 -12 -37z m2491 -256 c6 -6 25 -13 43
-14 44 -4 46 -10 11 -35 -33 -23 -31 -24 -45 24 -4 12 -20 13 -80 9 -51 -4
-76 -2 -76 5 0 6 6 13 13 15 24 10 123 7 134 -4z m245 -116 c15 -15 32 -41 37
-56 14 -36 14 -174 1 -182 -6 -4 -10 19 -11 62 0 37 -2 76 -4 85 -5 27 -40 80
-74 112 -17 17 -31 34 -31 39 0 11 48 -23 82 -60z m-261 1 c-26 -44 -26 -53 1
-128 26 -73 91 -169 170 -249 64 -65 65 -68 54 -114 -9 -41 -26 -43 -26 -4 0
33 -32 84 -102 160 -27 29 -66 85 -88 125 -47 85 -54 158 -20 214 11 17 22 32
26 32 3 0 -3 -16 -15 -36z m-2331 -185 c0 -11 -4 -18 -10 -14 -5 3 -7 12 -3
20 7 21 13 19 13 -6z m1600 -10 c0 -12 -5 -19 -11 -17 -6 2 -10 7 -10 11 1 4
1 14 1 23 0 8 5 12 10 9 6 -3 10 -15 10 -26z m-1576 -123 c1 -28 7 -51 14 -54
7 -2 12 -22 12 -47 0 -24 5 -56 11 -72 6 -15 13 -74 15 -131 1 -57 6 -112 9
-122 3 -10 10 -60 15 -112 14 -130 25 -198 38 -231 7 -16 12 -40 12 -54 0 -15
4 -40 9 -57 16 -54 31 -129 35 -181 2 -27 9 -63 15 -79 7 -16 10 -35 7 -42 -2
-6 1 -17 7 -23 6 -6 7 -11 1 -11 -5 0 -4 -4 2 -8 6 -4 14 -32 18 -62 l6 -55
-30 60 c-16 33 -30 72 -30 87 0 15 -5 30 -10 33 -6 3 -19 25 -29 48 -26 58
-54 121 -56 127 -8 24 -25 87 -26 95 0 6 -6 19 -12 30 -6 11 -12 25 -13 30
-13 62 -27 111 -34 120 -5 6 -10 30 -11 53 -2 23 -7 42 -11 42 -11 0 -8 397 2
426 5 12 6 25 3 28 -13 12 -10 68 3 73 8 3 14 9 14 15 0 5 -4 7 -9 4 -4 -3 -9
22 -10 55 -1 34 -2 64 -3 68 0 3 0 17 1 31 1 25 1 25 17 -5 9 -16 17 -52 18
-79z m1831 37 c11 -21 22 -40 25 -43 9 -8 64 -100 85 -141 32 -64 11 -67 -31
-4 -21 33 -57 85 -80 115 -27 36 -43 70 -48 99 -7 43 -6 44 11 29 10 -9 27
-34 38 -55z m1191 30 c-8 -16 -27 -39 -42 -53 l-28 -25 27 33 c15 19 27 40 27
47 0 11 9 19 28 24 1 1 -4 -11 -12 -26z m-29 1 c-3 -3 -12 -4 -19 -1 -8 3 -5
6 6 6 11 1 17 -2 13 -5z m-47 -8 c0 -2 -7 -7 -16 -10 -8 -3 -12 -2 -9 4 6 10
25 14 25 6z m-330 -13 c0 -5 -5 -15 -10 -23 -7 -12 -9 -10 -7 8 1 19 17 33 17
15z m306 -50 c-1 -7 -14 -25 -27 -40 -44 -47 -66 -86 -74 -128 -4 -22 -11 -45
-16 -51 -5 -6 -10 -19 -12 -30 -2 -10 -10 -32 -20 -49 -14 -27 -16 -28 -17 -8
0 12 -4 25 -10 28 -6 3 -8 -2 -5 -12 3 -10 -3 -1 -12 20 -10 21 -22 35 -26 31
-4 -4 -7 -3 -7 2 0 5 -13 18 -30 27 -16 10 -30 14 -30 9 0 -5 -8 -12 -18 -14
-11 -3 -19 0 -19 8 0 7 4 11 9 8 4 -3 8 0 8 6 0 8 -9 10 -25 6 -14 -4 -25 -2
-25 3 0 11 39 27 55 22 5 -1 1 7 -9 18 -19 21 -57 25 -49 5 3 -7 12 -10 21 -8
14 4 13 3 -1 -6 -23 -15 -27 -11 -32 28 -2 19 2 36 11 43 8 6 12 20 9 30 -8
23 12 62 27 53 5 -4 6 -9 2 -13 -13 -9 -15 -61 -3 -61 6 0 7 5 4 10 -7 12 -1
13 85 15 88 2 108 9 123 45 4 11 6 10 6 -4 1 -20 1 -20 19 0 21 23 91 29 88 7z
m-152 -18 c-4 -8 -11 -12 -16 -9 -6 4 -5 10 3 15 19 12 19 11 13 -6z m109 -79
c-10 -13 -20 -22 -22 -20 -4 4 29 44 36 44 2 0 -4 -11 -14 -24z m-218 -126
c-3 -5 -14 -10 -23 -10 -15 0 -15 2 -2 10 20 13 33 13 25 0z m10 -29 c-3 -6
-11 -8 -17 -5 -6 4 -5 9 3 15 16 10 23 4 14 -10z m150 -48 c-9 -50 -17 -34 -9
18 4 24 9 38 12 31 2 -7 1 -29 -3 -49z m-40 -125 c-4 -13 -14 -28 -22 -35 -14
-11 -14 -19 2 -75 9 -35 15 -77 12 -93 -3 -26 -4 -24 -6 10 -2 53 -13 69 -42
60 -15 -4 -19 -3 -11 3 7 4 15 39 19 75 5 55 8 65 19 56 11 -9 15 -7 20 5 9
24 16 19 9 -6z m-2485 -133 c24 -44 54 -95 67 -113 14 -18 39 -57 56 -87 42
-70 143 -206 237 -317 129 -153 132 -157 125 -200 -4 -24 -1 -56 9 -86 56
-172 100 -290 114 -312 48 -71 55 -122 12 -83 -16 14 -30 31 -30 37 0 6 -26
43 -58 83 -31 39 -75 100 -97 134 -22 34 -44 69 -50 77 -5 9 -31 48 -56 86
-25 39 -59 96 -76 126 -17 30 -43 78 -58 105 -16 28 -53 100 -83 160 -51 104
-72 155 -128 319 -13 37 -27 73 -32 80 -5 6 -12 25 -15 41 -3 17 -8 41 -13 55
l-7 25 20 -25 c11 -14 39 -61 63 -105z m2391 -72 c-12 -20 -14 -14 -5 12 4 9
9 14 11 11 3 -2 0 -13 -6 -23z m79 -93 c5 -30 13 -68 19 -83 6 -16 11 -39 11
-51 0 -14 9 -28 23 -35 12 -6 14 -9 5 -7 -18 5 -24 -5 -11 -18 12 -12 10 -75
-2 -73 -5 1 -16 10 -23 20 -7 9 -17 15 -21 13 -4 -3 -13 3 -20 13 -8 10 -24
16 -42 15 -16 -1 -27 2 -24 7 3 4 12 6 20 2 23 -8 18 15 -5 27 -11 6 -18 15
-15 20 3 4 0 10 -5 12 -21 7 -12 157 11 201 6 10 18 27 27 38 17 19 17 19 31
-13 7 -18 17 -58 21 -88z m37 -62 c-3 -8 -6 -5 -6 6 -1 11 2 17 5 13 3 -3 4
-12 1 -19z m-159 -33 c-3 -3 -9 2 -12 12 -6 14 -5 15 5 6 7 -7 10 -15 7 -18z
m-21 -27 c-3 -7 -5 -2 -5 12 0 14 2 19 5 13 2 -7 2 -19 0 -25z m190 10 c-3 -8
-6 -5 -6 6 -1 11 2 17 5 13 3 -3 4 -12 1 -19z m-150 -80 c-3 -8 -6 -5 -6 6 -1
11 2 17 5 13 3 -3 4 -12 1 -19z m193 -28 c0 -5 -2 -10 -4 -10 -3 0 -8 5 -11
10 -3 6 -1 10 4 10 6 0 11 -4 11 -10z m38 -105 c11 -33 23 -82 26 -110 6 -46
5 -49 -9 -30 -8 11 -13 25 -10 33 2 7 1 10 -4 7 -5 -3 -12 -1 -16 5 -3 5 1 10
9 10 19 0 20 20 4 55 -8 17 -14 22 -19 14 -4 -7 -6 4 -4 24 3 31 0 37 -15 37
-10 0 -21 -3 -24 -8 -7 -11 21 -72 34 -72 5 0 10 -4 10 -10 0 -21 -16 -9 -42
31 l-27 42 27 26 c31 30 33 28 60 -54z m-127 58 c13 -16 12 -17 -3 -4 -17 13
-22 21 -14 21 2 0 10 -8 17 -17z m-451 -298 c0 -14 -4 -25 -10 -25 -5 0 -10
11 -10 25 0 14 5 25 10 25 6 0 10 -11 10 -25z m-1317 -144 c51 -44 117 -100
147 -123 55 -44 135 -151 147 -198 3 -14 19 -52 35 -84 15 -33 28 -64 28 -70
0 -6 11 -28 25 -48 26 -38 69 -138 62 -145 -7 -7 -139 132 -194 206 -10 13
-30 37 -44 55 -14 17 -38 49 -52 72 -14 22 -31 47 -39 55 -24 26 -118 167
-118 178 0 6 -4 11 -9 11 -5 0 -16 17 -25 38 -9 20 -28 52 -41 71 -23 31 -32
61 -20 61 3 0 47 -36 98 -79z m1557 -3 c0 -39 -3 -69 -6 -65 -7 7 -12 118 -7
130 10 18 13 2 13 -65z m-2054 -33 c16 -30 32 -55 36 -55 4 0 8 -5 8 -10 0
-11 34 -63 58 -88 7 -8 22 -32 33 -53 10 -21 24 -39 29 -39 6 0 10 -7 10 -15
0 -8 -4 -15 -10 -15 -6 0 -5 -10 2 -25 10 -23 12 -23 24 -7 12 15 13 15 8 -5
-4 -15 5 -36 30 -69 20 -26 36 -51 36 -57 0 -6 3 -8 6 -4 6 6 54 -76 54 -93 0
-9 -32 -6 -50 5 -5 3 -26 8 -45 9 -49 5 -94 28 -134 69 -27 29 -32 40 -26 65
4 20 1 34 -9 44 -11 12 -12 18 -3 28 9 10 9 11 0 6 -10 -5 -13 5 -14 36 -1 44
-5 103 -7 126 -1 7 -6 11 -10 8 -5 -3 -9 1 -9 9 0 8 4 12 9 9 4 -3 7 7 6 21
-2 24 -3 25 -17 8 -13 -16 -13 -17 -8 0 4 9 2 17 -2 17 -5 0 -7 10 -3 22 4 16
2 19 -8 13 -8 -5 -11 -4 -6 3 3 6 -1 15 -9 19 -9 5 -18 26 -22 48 -8 51 8 40
43 -30z m21 -227 c-3 -8 -6 -5 -6 6 -1 11 2 17 5 13 3 -3 4 -12 1 -19z m453
-126 c0 -15 -2 -15 -10 -2 -13 20 -13 33 0 25 6 -3 10 -14 10 -23z m-217 -28
c-3 -8 -7 -14 -10 -14 -3 0 -3 7 1 15 3 9 0 15 -9 15 -8 0 -15 7 -15 17 0 15
2 15 19 -1 11 -10 17 -24 14 -32z m-251 -9 c-3 -20 0 -25 17 -25 14 0 21 -6
21 -20 0 -11 8 -24 18 -27 9 -4 24 -14 32 -23 8 -9 21 -15 28 -13 6 3 12 0 12
-7 0 -6 3 -9 8 -7 4 3 13 -1 20 -9 11 -12 10 -14 -5 -15 -16 0 -16 -1 2 -10
17 -8 16 -9 -7 -6 -16 3 -28 0 -28 -5 0 -5 -12 3 -26 17 -14 14 -30 23 -35 19
-5 -3 -8 0 -7 8 2 7 -5 12 -14 12 -10 -1 -16 1 -15 5 4 12 -30 51 -39 43 -5
-4 -6 -3 -2 2 4 5 1 21 -7 36 -10 20 -11 30 -2 39 19 19 35 13 29 -14z m498 4
c0 -6 -4 -7 -10 -4 -5 3 -10 11 -10 16 0 6 5 7 10 4 6 -3 10 -11 10 -16z
m-140 -124 c13 -14 21 -25 18 -25 -2 0 -15 11 -28 25 -13 14 -21 25 -18 25 2
0 15 -11 28 -25z m1802 -11 c-8 -14 -9 -13 -9 10 0 18 3 24 9 18 7 -7 7 -16 0
-28z m-22 16 c0 -5 -5 -10 -11 -10 -5 0 -7 5 -4 10 3 6 8 10 11 10 2 0 4 -4 4
-10z m-30 -11 c0 -8 -91 -21 -98 -14 -3 3 4 5 16 5 12 0 22 3 22 8 0 4 14 7
30 7 17 1 30 -2 30 -6z m-1845 -39 c3 -6 -1 -7 -9 -4 -18 7 -21 14 -7 14 6 0
13 -4 16 -10z m164 -37 c9 -8 10 -13 4 -13 -7 0 -22 15 -34 33 -16 23 -17 27
-3 12 10 -11 25 -26 33 -32z m1557 3 c-32 -31 -33 -24 -4 17 12 17 23 26 25
20 2 -6 -7 -23 -21 -37z m64 -16 c0 -22 -24 -27 -36 -8 -5 8 -2 9 9 5 11 -4
17 -1 17 8 0 8 2 15 5 15 3 0 5 -9 5 -20z m-1709 -7 c13 -16 12 -17 -3 -4 -10
7 -18 15 -18 17 0 8 8 3 21 -13z m1769 13 c0 -2 -8 -10 -17 -17 -16 -13 -17
-12 -4 4 13 16 21 21 21 13z m-1560 -140 c0 -9 -2 -16 -5 -16 -7 0 -155 102
-155 106 0 7 43 -17 58 -33 13 -13 42 -18 42 -7 0 3 -12 22 -27 42 -21 28 -13
23 30 -20 31 -31 57 -63 57 -72z m1409 111 c-2 -1 -13 -9 -24 -17 -19 -14 -19
-14 -6 3 7 9 18 17 24 17 6 0 8 -1 6 -3z m49 -13 c-1 -5 -9 -9 -16 -10 -10 -2
-11 1 -1 12 12 14 24 13 17 -2z m52 3 c0 -2 -12 -14 -27 -28 l-28 -24 24 28
c23 25 31 32 31 24z m-145 -46 c2 -11 -1 -21 -7 -21 -5 0 -8 7 -4 15 3 8 1 15
-5 15 -6 0 -7 5 -4 11 9 13 15 7 20 -20z m32 7 c-3 -8 -6 -5 -6 6 -1 11 2 17
5 13 3 -3 4 -12 1 -19z m-98 -55 c-13 -16 -25 -30 -26 -32 -2 -2 -6 -1 -10 3
-4 4 6 18 21 31 38 33 45 32 15 -2z m51 -17 c0 5 10 10 23 11 17 1 15 -2 -13
-17 -19 -10 -64 -44 -100 -76 -36 -32 -56 -47 -45 -34 31 37 67 70 77 70 5 0
6 5 2 12 -4 6 -3 8 3 5 15 -10 36 20 29 40 -5 15 -4 15 9 -1 8 -11 15 -15 15
-10z m-114 -35 c-3 -5 -16 -11 -28 -14 -22 -6 -22 -5 -4 8 22 17 40 20 32 6z
m-56 -34 c0 -2 -11 -14 -25 -27 -14 -13 -25 -21 -25 -17 0 3 10 15 22 27 21
19 28 24 28 17z m10 -70 c0 -2 -19 -21 -42 -42 l-43 -40 40 43 c36 39 45 47
45 39z m-114 -68 c3 -6 0 -15 -7 -20 -11 -7 -12 -11 -1 -17 10 -7 10 -11 -3
-22 -13 -11 -14 -10 -8 6 6 17 5 18 -13 4 -10 -8 -28 -24 -40 -35 -11 -11 -25
-21 -32 -23 -21 -4 -13 39 13 70 14 16 25 27 25 23 0 -4 7 1 16 9 18 19 40 21
50 5z m-747 -41 c20 -12 40 -28 44 -35 4 -7 13 -13 19 -13 18 0 79 -51 73 -61
-4 -5 0 -9 7 -9 8 0 25 -13 40 -30 17 -20 22 -30 12 -30 -8 0 -14 -4 -14 -9 0
-6 10 -8 21 -6 12 3 19 1 15 -2 -12 -12 -46 -13 -46 -2 0 8 -5 8 -15 -1 -14
-11 -19 -7 -16 13 1 7 -15 11 -32 8 -5 -1 -6 3 -2 9 6 9 -8 14 -28 11 -5 -1
-6 3 -2 9 4 6 -4 20 -17 31 l-23 21 25 -16 c14 -9 35 -21 48 -26 13 -6 21 -13
19 -17 -3 -5 8 -9 24 -10 26 -2 28 0 19 17 -12 23 -26 26 -33 8 -2 -7 -7 1
-11 19 -6 25 -17 36 -60 57 -63 31 -71 32 -49 7 9 -11 21 -17 27 -14 6 4 2 -3
-8 -15 -23 -26 -41 -16 -49 27 -4 17 -14 30 -26 34 -13 3 -21 13 -21 26 0 27
14 26 59 -1z m-20 -72 c-3 -3 -11 5 -18 17 -13 21 -12 21 5 5 10 -10 16 -20
13 -22z m592 -67 c-11 -9 -17 -19 -14 -23 11 -10 23 -7 23 7 0 7 16 21 35 30
19 9 35 21 35 26 0 5 8 12 18 15 9 4 -14 -24 -53 -61 -43 -42 -71 -63 -73 -54
-3 9 -14 11 -35 8 l-32 -6 27 13 c30 13 77 70 79 95 1 9 4 5 6 -9 3 -16 -2
-30 -16 -41z m-111 -74 c-14 -17 -5 -36 15 -28 27 10 16 -25 -19 -64 -18 -21
-38 -48 -45 -60 -14 -27 -24 -29 -45 -8 -16 17 -14 45 6 74 13 18 18 21 38 21
6 0 10 7 10 15 0 8 3 14 8 13 4 -2 7 2 7 7 0 6 -4 9 -10 7 -5 -1 1 7 14 18 27
23 39 26 21 5z m71 -38 c-10 -9 -11 -8 -5 6 3 10 9 15 12 12 3 -3 0 -11 -7
-18z m-204 -84 c-3 -10 -5 -4 -5 12 0 17 2 24 5 18 2 -7 2 -21 0 -30z m166 20
c-3 -10 -10 -23 -14 -29 -5 -6 -6 -14 -2 -18 4 -4 -3 -9 -15 -13 -12 -3 -22
-10 -22 -15 0 -5 4 -7 9 -4 4 3 6 -6 3 -19 -2 -14 -8 -25 -12 -25 -5 0 -11 -8
-14 -18 -4 -10 -20 -29 -38 -42 -30 -22 -32 -22 -44 -5 -9 12 -10 23 -4 35 5
10 6 20 3 24 -3 3 5 7 18 7 17 1 19 3 7 6 -10 2 -18 8 -18 13 0 4 9 6 20 3 13
-4 29 5 49 28 16 18 30 35 29 38 -2 22 4 32 16 28 8 -3 17 1 20 9 8 20 17 17
9 -3z m-149 -69 c3 -8 2 -12 -4 -9 -6 3 -10 10 -10 16 0 14 7 11 14 -7z"/>
<path d="M2468 5391 c-21 -5 -25 -9 -18 -21 8 -12 10 -12 10 -1 0 9 7 11 23 7
38 -12 60 -11 64 2 3 7 -1 10 -11 6 -9 -3 -22 -2 -29 3 -6 5 -24 7 -39 4z"/>
<path d="M4240 4495 c0 -8 7 -15 15 -15 8 0 15 4 15 9 0 5 -7 11 -15 15 -9 3
-15 0 -15 -9z"/>
<path d="M3230 1246 c0 -2 7 -9 15 -16 9 -7 15 -8 15 -2 0 5 -7 12 -15 16 -8
3 -15 4 -15 2z"/>
<path d="M4150 3344 c0 -2 9 -8 20 -14 11 -6 20 -7 20 -2 0 6 -9 12 -20 15
-11 3 -20 3 -20 1z"/>
</g>
</svg>
